<svg width="22" height="20" viewBox="0 0 22 20" fill="none" xmlns="http://www.w3.org/2000/svg">
<path d="M14.58 9.99992C14.58 11.9799 12.98 13.5799 11 13.5799C9.02001 13.5799 7.42001 11.9799 7.42001 9.99992C7.42001 8.01992 9.02001 6.41992 11 6.41992C12.98 6.41992 14.58 8.01992 14.58 9.99992Z" stroke="#292D32" stroke-width="1.5" stroke-linecap="round" stroke-linejoin="round"/>
<path d="M11 18.2697C14.53 18.2697 17.82 16.1897 20.11 12.5897C21.01 11.1797 21.01 8.80973 20.11 7.39973C17.82 3.79973 14.53 1.71973 11 1.71973C7.47 1.71973 4.18 3.79973 1.89 7.39973C0.989996 8.80973 0.989996 11.1797 1.89 12.5897C4.18 16.1897 7.47 18.2697 11 18.2697Z" stroke="#292D32" stroke-width="1.5" stroke-linecap="round" stroke-linejoin="round"/>
</svg>
