<svg width="48" height="48" viewBox="0 0 48 48" fill="none" xmlns="http://www.w3.org/2000/svg">
<path d="M8.72608 42.4709V40.0012C8.72608 39.0545 8.14983 38.4371 7.16197 38.4371C6.66804 38.4371 6.13295 38.6018 5.7625 39.1368C5.47437 38.6841 5.06276 38.4371 4.44535 38.4371C4.03374 38.4371 3.62213 38.5606 3.29285 39.0134V38.5194H2.42847V42.4709H3.29285V40.2894C3.29285 39.5896 3.66329 39.2603 4.23955 39.2603C4.8158 39.2603 5.10392 39.6308 5.10392 40.2894V42.4709H5.9683V40.2894C5.9683 39.5896 6.37991 39.2603 6.915 39.2603C7.49126 39.2603 7.77938 39.6308 7.77938 40.2894V42.4709H8.72608ZM21.5271 38.5194H20.1277V37.3258H19.2633V38.5194H18.4812V39.3015H19.2633V41.1126C19.2633 42.0181 19.6337 42.5532 20.6216 42.5532C20.992 42.5532 21.4036 42.4297 21.6918 42.2651L21.4448 41.5242C21.1978 41.6888 20.9097 41.73 20.7039 41.73C20.2923 41.73 20.1277 41.483 20.1277 41.0714V39.3015H21.5271V38.5194ZM28.8538 38.4371C28.3598 38.4371 28.0305 38.6841 27.8247 39.0134V38.5194H26.9604V42.4709H27.8247V40.2482C27.8247 39.5896 28.1129 39.2192 28.648 39.2192C28.8126 39.2192 29.0184 39.2603 29.183 39.3015L29.43 38.4783C29.2654 38.4371 29.0184 38.4371 28.8538 38.4371ZM17.7815 38.8487C17.3699 38.5606 16.7936 38.4371 16.1762 38.4371C15.1883 38.4371 14.5298 38.931 14.5298 39.7131C14.5298 40.3717 15.0237 40.7421 15.8881 40.8656L16.2997 40.9068C16.7525 40.9891 16.9994 41.1126 16.9994 41.3184C16.9994 41.6065 16.6701 41.8123 16.0939 41.8123C15.5176 41.8123 15.0649 41.6065 14.7767 41.4007L14.3651 42.0593C14.8179 42.3886 15.4353 42.5532 16.0527 42.5532C17.2052 42.5532 17.8638 42.0181 17.8638 41.2772C17.8638 40.5775 17.3287 40.207 16.5055 40.0835L16.0939 40.0424C15.7234 40.0012 15.4353 39.9189 15.4353 39.6719C15.4353 39.3838 15.7234 39.2192 16.1762 39.2192C16.6701 39.2192 17.1641 39.425 17.411 39.5485L17.7815 38.8487ZM40.7493 38.4371C40.2553 38.4371 39.926 38.6841 39.7202 39.0134V38.5194H38.8559V42.4709H39.7202V40.2482C39.7202 39.5896 40.0084 39.2192 40.5435 39.2192C40.7081 39.2192 40.9139 39.2603 41.0785 39.3015L41.3255 38.4783C41.1609 38.4371 40.9139 38.4371 40.7493 38.4371ZM29.7181 40.4952C29.7181 41.6888 30.5414 42.5532 31.8173 42.5532C32.3936 42.5532 32.8052 42.4297 33.2168 42.1004L32.8052 41.4007C32.4759 41.6477 32.1466 41.7711 31.7762 41.7711C31.0764 41.7711 30.5825 41.2772 30.5825 40.4952C30.5825 39.7543 31.0764 39.2603 31.7762 39.2192C32.1466 39.2192 32.4759 39.3427 32.8052 39.5896L33.2168 38.8899C32.8052 38.5606 32.3936 38.4371 31.8173 38.4371C30.5414 38.4371 29.7181 39.3015 29.7181 40.4952ZM37.7034 40.4952V38.5194H36.839V39.0134C36.5508 38.6429 36.1392 38.4371 35.6041 38.4371C34.4928 38.4371 33.6284 39.3015 33.6284 40.4952C33.6284 41.6888 34.4928 42.5532 35.6041 42.5532C36.1804 42.5532 36.592 42.3474 36.839 41.9769V42.4709H37.7034V40.4952ZM34.534 40.4952C34.534 39.7954 34.9867 39.2192 35.7276 39.2192C36.4274 39.2192 36.9213 39.7543 36.9213 40.4952C36.9213 41.1949 36.4274 41.7711 35.7276 41.7711C34.9867 41.73 34.534 41.1949 34.534 40.4952ZM24.2026 38.4371C23.0501 38.4371 22.2269 39.2603 22.2269 40.4952C22.2269 41.73 23.0501 42.5532 24.2437 42.5532C24.82 42.5532 25.3962 42.3886 25.849 42.0181L25.4374 41.4007C25.1081 41.6477 24.6965 41.8123 24.2849 41.8123C23.7498 41.8123 23.2147 41.5653 23.0912 40.8656H26.0137V40.5363C26.0548 39.2603 25.3139 38.4371 24.2026 38.4371ZM24.2026 39.178C24.7377 39.178 25.1081 39.5073 25.1904 40.1247H23.1324C23.2147 39.5896 23.5852 39.178 24.2026 39.178ZM45.6474 40.4952V36.9553H44.783V39.0134C44.4949 38.6429 44.0833 38.4371 43.5482 38.4371C42.4369 38.4371 41.5725 39.3015 41.5725 40.4952C41.5725 41.6888 42.4369 42.5532 43.5482 42.5532C44.1245 42.5532 44.5361 42.3474 44.783 41.9769V42.4709H45.6474V40.4952ZM42.478 40.4952C42.478 39.7954 42.9308 39.2192 43.6717 39.2192C44.3714 39.2192 44.8653 39.7543 44.8653 40.4952C44.8653 41.1949 44.3714 41.7711 43.6717 41.7711C42.9308 41.73 42.478 41.1949 42.478 40.4952ZM13.5831 40.4952V38.5194H12.7187V39.0134C12.4306 38.6429 12.019 38.4371 11.4839 38.4371C10.3725 38.4371 9.50814 39.3015 9.50814 40.4952C9.50814 41.6888 10.3725 42.5532 11.4839 42.5532C12.0601 42.5532 12.4717 42.3474 12.7187 41.9769V42.4709H13.5831V40.4952ZM10.3725 40.4952C10.3725 39.7954 10.8253 39.2192 11.5662 39.2192C12.2659 39.2192 12.7599 39.7543 12.7599 40.4952C12.7599 41.1949 12.2659 41.7711 11.5662 41.7711C10.8253 41.73 10.3725 41.1949 10.3725 40.4952Z" fill="black"/>
<path d="M30.4591 8.51318H17.4934V31.8102H30.4591V8.51318Z" fill="#FF5F00"/>
<path d="M18.3166 20.1617C18.3166 15.4282 20.5393 11.2298 23.9556 8.51314C21.4448 6.53742 18.2754 5.34375 14.8179 5.34375C6.6269 5.34375 0 11.9707 0 20.1617C0 28.3527 6.6269 34.9796 14.8179 34.9796C18.2754 34.9796 21.4448 33.7859 23.9556 31.8102C20.5393 29.1347 18.3166 24.8952 18.3166 20.1617Z" fill="#EB001B"/>
<path d="M47.9525 20.1617C47.9525 28.3527 41.3256 34.9796 33.1345 34.9796C29.677 34.9796 26.5076 33.7859 23.9968 31.8102C27.4543 29.0936 29.6359 24.8952 29.6359 20.1617C29.6359 15.4282 27.4132 11.2298 23.9968 8.51314C26.5076 6.53742 29.677 5.34375 33.1345 5.34375C41.3256 5.34375 47.9525 12.0118 47.9525 20.1617Z" fill="#F79E1B"/>
</svg>
