<svg width="48" height="48" viewBox="0 0 48 48" fill="none" xmlns="http://www.w3.org/2000/svg">
<g clip-path="url(#clip0_309_74239)">
<path d="M45.44 8.92798H2.56C1.14615 8.92798 0 10.0741 0 11.488V36.512C0 37.9258 1.14615 39.072 2.56 39.072H45.44C46.8539 39.072 48 37.9258 48 36.512V11.488C48 10.0741 46.8539 8.92798 45.44 8.92798Z" fill="#00425F"/>
<path d="M10.0009 30.0967C14.075 30.0967 17.3777 26.794 17.3777 22.7199C17.3777 18.6458 14.075 15.343 10.0009 15.343C5.92676 15.343 2.62402 18.6458 2.62402 22.7199C2.62402 26.794 5.92676 30.0967 10.0009 30.0967Z" fill="#EE312A"/>
<path d="M10.0007 25.8798C8.35084 22.1396 7.14091 18.6458 7.14091 18.6458H4.61133C4.61133 18.6458 6.15097 23.1303 9.0108 28.7386H10.9907C13.8505 23.1303 15.3902 18.6458 15.3902 18.6458H12.8606C12.8606 18.6458 11.6507 22.1396 10.0007 25.8798Z" fill="white"/>
<path d="M45.315 25.4148H40.3659C40.3659 25.4148 40.4759 27.0648 42.6755 27.0648C43.7752 27.0648 44.8751 26.7345 44.8751 26.7345L45.0951 28.4941C45.0951 28.4941 43.9952 28.9341 42.4555 28.9341C40.256 28.9341 38.2764 27.8343 38.2764 24.7549C38.2764 22.3353 39.816 20.7957 42.0156 20.7957C45.315 20.7957 45.535 24.095 45.315 25.4148ZM41.9057 22.3353C40.4759 22.3353 40.3659 23.875 40.3659 23.875H43.4453C43.4453 23.875 43.3354 22.3353 41.9057 22.3353Z" fill="white"/>
<path d="M28.3094 22.7997L28.6394 21.0401C28.6394 21.0401 26.0914 20.2669 24.0203 21.6999V28.7385H26.22L26.2198 23.0197C27.0996 22.3598 28.3094 22.7997 28.3094 22.7997Z" fill="white"/>
<path d="M22.2987 25.4148H17.3497C17.3497 25.4148 17.4596 27.0648 19.6592 27.0648C20.759 27.0648 21.8587 26.7345 21.8587 26.7345L22.0787 28.4941C22.0787 28.4941 20.979 28.9341 19.4392 28.9341C17.2396 28.9341 15.26 27.8343 15.26 24.7549C15.26 22.3353 16.7997 20.7957 18.9993 20.7957C22.2987 20.7957 22.5186 24.095 22.2987 25.4148ZM18.8893 22.3353C17.4596 22.3353 17.3497 23.875 17.3497 23.875H20.429C20.429 23.875 20.3191 22.3353 18.8893 22.3353Z" fill="white"/>
<path d="M33.6513 26.1006C32.9676 24.4378 32.416 22.7236 32.0017 20.9741L29.8022 20.9744C29.8022 20.9744 30.902 25.2205 32.7718 28.7389H34.5309C36.4007 25.2205 37.5005 20.9752 37.5005 20.9752H35.301C34.8866 22.7243 34.335 24.4381 33.6513 26.1006Z" fill="white"/>
</g>
<defs>
<clipPath id="clip0_309_74239">
<rect width="48" height="48" fill="white"/>
</clipPath>
</defs>
</svg>
