<svg width="48" height="48" viewBox="0 0 48 48" fill="none" xmlns="http://www.w3.org/2000/svg">
<path d="M43.8856 7.88574H4.1142C2.0313 7.88574 0.342773 9.57427 0.342773 11.6572V36.3429C0.342773 38.4258 2.0313 40.1143 4.1142 40.1143H43.8856C45.9685 40.1143 47.6571 38.4258 47.6571 36.3429V11.6572C47.6571 9.57427 45.9685 7.88574 43.8856 7.88574Z" fill="white"/>
<path fill-rule="evenodd" clip-rule="evenodd" d="M14.5717 29.8398H11.6639L9.48332 21.5209C9.37984 21.1383 9.16007 20.7999 8.83683 20.6405C8.03008 20.2398 7.14112 19.9209 6.17139 19.7601V19.4398H10.8557C11.5023 19.4398 11.9871 19.9209 12.0679 20.4797L13.1993 26.4804L16.1058 19.4398H18.9328L14.5717 29.8398ZM20.5491 29.8398H17.8029L20.0642 19.4398H22.8104L20.5491 29.8398ZM26.3634 22.3209C26.4443 21.7608 26.9291 21.4405 27.4948 21.4405C28.3838 21.3601 29.3521 21.521 30.1603 21.9202L30.6451 19.681C29.837 19.3608 28.9481 19.2 28.1413 19.2C25.4759 19.2 23.5363 20.6405 23.5363 22.6398C23.5363 24.1608 24.9102 24.9594 25.88 25.4405C26.9291 25.9202 27.3332 26.2405 27.2524 26.7202C27.2524 27.4398 26.4443 27.7601 25.6375 27.7601C24.6678 27.7601 23.698 27.5203 22.8104 27.1195L22.3256 29.3601C23.2953 29.7594 24.3445 29.9203 25.3143 29.9203C28.3029 29.9993 30.1603 28.5601 30.1603 26.4C30.1603 23.6797 26.3634 23.5202 26.3634 22.3209ZM39.7714 29.8398L37.5908 19.4398H35.2487C34.7638 19.4398 34.2789 19.7601 34.1173 20.2398L30.0794 29.8398H32.9065L33.4708 28.3202H36.9443L37.2676 29.8398H39.7714ZM35.6527 22.2405L36.4595 26.1601H34.1981L35.6527 22.2405Z" fill="#172B85"/>
<rect x="0.5" y="0.5" width="47" height="47" stroke="#EAECF0"/>
</svg>
